<?xml version="1.0" encoding="UTF-8" standalone="no"?>
<svg
   version="1.1"
   id="Layer_1"
   x="0px"
   y="0px"
   width="240"
   viewBox="0 0 240 420"
   enable-background="new 0 0 400 500"
   xml:space="preserve"
   sodipodi:docname="logo-em-head.svg"
   inkscape:version="1.2.2 (b0a84865, 2022-12-01)"
   height="420"
   xmlns:inkscape="http://www.inkscape.org/namespaces/inkscape"
   xmlns:sodipodi="http://sodipodi.sourceforge.net/DTD/sodipodi-0.dtd"
   xmlns="http://www.w3.org/2000/svg"
   xmlns:svg="http://www.w3.org/2000/svg"><defs
   id="defs533" /><sodipodi:namedview
   id="namedview531"
   pagecolor="#ffffff"
   bordercolor="#000000"
   borderopacity="0.25"
   inkscape:showpageshadow="2"
   inkscape:pageopacity="0.0"
   inkscape:pagecheckerboard="0"
   inkscape:deskcolor="#d1d1d1"
   showgrid="false"
   inkscape:zoom="0.472"
   inkscape:cx="132.41525"
   inkscape:cy="250"
   inkscape:window-width="1440"
   inkscape:window-height="900"
   inkscape:window-x="0"
   inkscape:window-y="124"
   inkscape:window-maximized="0"
   inkscape:current-layer="Layer_1" />

	
	
	
	
<g
   id="g679"
   transform="translate(-80.508475,-38.135593)"><path
     fill="#2dcad3"
     opacity="1"
     stroke="none"
     d="M 153.27924,409.64493 C 141.0126,390.79327 134.05238,370.371 129.89035,348.73361 c -3.92978,-20.42996 -5.24638,-41.09494 -3.44755,-61.59619 1.01013,-11.51233 5.7407,-22.93509 10.147,-33.85257 5.51204,-13.65716 14.00027,-25.60472 25.12214,-35.51658 12.25287,-10.91981 26.25084,-17.18394 42.90473,-17.87192 18.4942,-0.76401 35.94882,2.92807 52.11151,11.55812 22.60504,12.06987 36.39447,30.545 39.39182,56.63739 1.39114,12.10992 1.32022,23.83536 -2.97339,35.39001 -4.90305,13.19467 -14.05847,22.82114 -25.59543,30.23218 -14.03531,9.01587 -29.61632,14.01907 -46.10105,16.2818 -0.49249,0.0676 -1.01062,-0.0233 -1.4949,0.0716 -11.03993,2.16187 -11.14166,2.52472 -8.91264,14.12735 3.37614,17.57355 9.84738,33.85547 21.44104,47.5297 9.39325,11.07885 20.42973,20.52331 33.48857,27.29644 1.27826,0.66303 2.51669,1.40281 5.16638,2.88718 -6.53534,1.57275 -11.68457,3.40863 -16.96742,3.95703 -10.47527,1.0874 -21.04494,2.25681 -31.53882,1.98291 -28.75459,-0.75049 -51.48616,-13.29428 -68.12279,-36.8045 -0.28564,-0.40366 -0.68007,-0.73035 -1.23031,-1.39862 z"
     id="path522" /><path
     fill="#2dcad3"
     opacity="1"
     stroke="none"
     d="m 209.72554,151.6339 c -0.87221,2.31575 -1.53792,4.28485 -2.63164,7.51997 -2.30211,-4.89803 -4.54373,-8.74387 -5.97481,-12.87076 -6.46626,-18.64725 -13.37928,-37.18481 -18.6905,-56.165076 -2.12907,-7.608505 -1.62911,-16.420463 -0.39617,-24.385971 1.61435,-10.429531 9.42981,-14.83551 19.83669,-12.618099 12.56461,2.677158 16.52011,6.769634 19.0847,21.269093 3.06703,17.34011 -0.77359,34.233683 -4.22301,51.054793 -1.78706,8.71474 -4.50265,17.23904 -7.00526,26.19605 z"
     id="path524" /><path
     fill="#2dcad3"
     opacity="1"
     stroke="none"
     d="m 289.73886,142.76022 c -10.79608,10.52939 -21.33704,20.80756 -31.87799,31.08573 -0.42377,-0.36597 -0.8475,-0.73195 -1.27127,-1.09793 1.80392,-20.41931 4.64407,-40.71532 11.60986,-60.07585 2.64438,-7.34974 6.97794,-14.30512 11.61615,-20.655393 3.59275,-4.918884 9.01978,-5.343094 14.15915,-2.495125 13.82862,7.663109 18.0282,17.211878 10.85349,31.225668 -3.96939,7.75324 -9.82755,14.53951 -15.08939,22.0129 z"
     id="path526" /><path
     fill="#2dcad3"
     opacity="1"
     stroke="none"
     d="m 97.69133,141.14389 c -5.846085,-7.79245 -4.034622,-16.21639 -1.456085,-23.71432 2.001571,-5.8202 6.950715,-10.46672 14.106845,-11.48845 9.02559,-1.28865 13.73516,4.45231 17.82615,10.75712 10.71379,16.51149 15.28542,35.34796 19.82201,54.16228 0.37036,1.53599 0.67609,3.08758 1.23752,5.66988 -19.53038,-9.26029 -38.03934,-18.2732 -51.53644,-35.38651 z"
     id="path528" /></g></svg>
