<?xml version="1.0" encoding="UTF-8" standalone="no"?>
<svg
   version="1.1"
   id="Layer_1"
   x="0px"
   y="0px"
   width="279.39069"
   viewBox="0 0 279.39069 422.55435"
   enable-background="new 0 0 286 456"
   xml:space="preserve"
   sodipodi:docname="watermark1.svg"
   
   height="422.55435"
    
   xmlns:sodipodi="http://sodipodi.sourceforge.net/DTD/sodipodi-0.dtd"
   xmlns="http://www.w3.org/2000/svg"
   xmlns:svg="http://www.w3.org/2000/svg"><sodipodi:namedview
   id="namedview135"
   pagecolor="#ffffff"
   bordercolor="#000000"
   borderopacity="0.25"
    
   showgrid="false"
    />
<path
   fill="#30c3cb59"
   opacity="1"
   stroke="none"
   d="m 279.39069,38.437683 c 0,127.689317 0,255.378627 -0.46866,383.533967 -82.23727,0.46603 -164.00591,0.44284 -245.774363,0.55963 -2.952011,0.004 -5.902054,0.0585 -9.117334,-0.0155 -0.73873,-0.0193 -1.574424,0.13708 -1.921818,-0.14609 -1.150466,-0.93779 -1.14707,-1.48598 -2.585948,-3.50028 -2.980399,-4.37223 -5.866189,-11.36106 -7.918046,-16.08695 C -3.1874884,368.71338 -2.3801134,333.63498 5.8910826,298.41479 14.221857,262.94088 35.914021,237.72346 68.208546,221.473 95.57944,207.70012 124.71843,200.8677 155.31859,200.23095 c 11.64263,-0.24226 23.31079,0.0763 34.92604,-0.5854 8.04988,-0.45857 10.70423,-3.51553 10.9699,-11.38068 0.94662,-28.02624 -1.86603,-55.65959 -11.34735,-82.16495 C 176.3581,68.334907 153.22742,37.236442 122.33626,11.806463 118.57122,8.7070429 114.81183,5.6007549 111.04982,2.4976529 c 0.14906,-0.440739 0.29812,-0.881477 0.44719,-1.322214 10.92375,-0.41744504 21.8712,-1.48534104 32.76532,-1.08862304 13.79314,0.502288 27.57459,1.91022804 41.30483,3.43436404 29.48082,3.272539 57.52902,11.0126521 82.54869,27.6946521 3.7128,2.475517 7.51434,4.817882 11.27484,7.221851 z"
   id="path132"
   sodipodi:nodetypes="ccscsccsssssssccsssc"
    />
 
 
 
</svg>
